<?xml version="1.0" encoding="iso-8859-1"?>
<!-- Generator: Adobe Illustrator 19.0.0, SVG Export Plug-In . SVG Version: 6.00 Build 0)  -->
<svg version="1.1" id="Capa_1" xmlns="http://www.w3.org/2000/svg" xmlns:xlink="http://www.w3.org/1999/xlink" x="0px" y="0px"
	 viewBox="0 0 464 464" style="enable-background:new 0 0 464 464;" xml:space="preserve">
<path style="fill:#CCDAEC;" d="M412,464H92V0h256l64,64V464z"/>
<circle style="fill:#B4DAED;" cx="164" cy="240" r="104"/>
<path style="fill:#1D3F54;" d="M332,0v80h80V64L348,0H332z"/>
<path style="fill:#326E93;" d="M230.346,325.653l11.314-11.314l26.344,26.344l-11.314,11.314L230.346,325.653z"/>
<path style="fill:#FFB052;" d="M244,360l32-32l65.376,65.376c4.243,4.244,6.625,9.999,6.624,16C348,421.871,337.871,432,325.376,432
	c-6.001,0.001-11.756-2.381-16-6.624L244,360z"/>
<g>
	<path style="fill:#FFFFFF;" d="M166.343,250.343l47.999-47.999l11.314,11.314l-47.999,47.999L166.343,250.343z"/>
	<path style="fill:#FFFFFF;" d="M174.34,290.331l47.999-47.999l11.314,11.314l-47.999,47.999L174.34,290.331z"/>
</g>
<path style="fill:#4497C1;" d="M164,352c-61.856,0-112-50.144-112-112s50.144-112,112-112s112,50.144,112,112
	C275.934,301.828,225.828,351.934,164,352z M164,144c-53.019,0-96,42.981-96,96s42.981,96,96,96s96-42.981,96-96
	C259.943,187.004,216.996,144.057,164,144z"/>
<g>
</g>
<g>
</g>
<g>
</g>
<g>
</g>
<g>
</g>
<g>
</g>
<g>
</g>
<g>
</g>
<g>
</g>
<g>
</g>
<g>
</g>
<g>
</g>
<g>
</g>
<g>
</g>
<g>
</g>
</svg>
